<?xml version="1.0" encoding="UTF-8" standalone="no"?>
<!-- Created with Inkscape (http://www.inkscape.org/) -->

<svg
   xmlns:dc="http://purl.org/dc/elements/1.1/"
   xmlns:cc="http://creativecommons.org/ns#"
   xmlns:rdf="http://www.w3.org/1999/02/22-rdf-syntax-ns#"
   xmlns:svg="http://www.w3.org/2000/svg"
   xmlns="http://www.w3.org/2000/svg"
   xmlns:sodipodi="http://sodipodi.sourceforge.net/DTD/sodipodi-0.dtd"
   xmlns:inkscape="http://www.inkscape.org/namespaces/inkscape"
   width="210mm"
   height="297mm"
   viewBox="0 0 210 297"
   version="1.1"
   id="svg8"
   inkscape:version="0.92.4 (5da689c313, 2019-01-14)"
   sodipodi:docname="favico.svg">
  <defs
     id="defs2">
    <clipPath
       id="clipPath44"
       clipPathUnits="userSpaceOnUse">
      <path
         id="path42"
         clip-rule="evenodd"
         d="M 0,0 H 1562.5 V 1593.75 H 0 Z" />
    </clipPath>
    <clipPath
       id="clipPath58"
       clipPathUnits="userSpaceOnUse">
      <path
         id="path56"
         clip-rule="evenodd"
         d="M 373.06818,413.72775 H 1094.9431 V 1075.8203 H 373.06818 Z" />
    </clipPath>
    <clipPath
       id="clipPath70"
       clipPathUnits="userSpaceOnUse">
      <path
         id="path68"
         clip-rule="evenodd"
         d="M 0,0 H 1562.5 V 1562.5 H 0 Z" />
    </clipPath>
    <clipPath
       id="clipPath88"
       clipPathUnits="userSpaceOnUse">
      <path
         id="path86"
         clip-rule="evenodd"
         d="m 689.49988,646.94116 h 236.79395 v 30.35821 H 689.49988 Z" />
    </clipPath>
    <clipPath
       id="clipPath100"
       clipPathUnits="userSpaceOnUse">
      <path
         id="path98"
         clip-rule="evenodd"
         d="m 689.49988,700.72925 h 236.79395 v 30.35821 H 689.49988 Z" />
    </clipPath>
    <clipPath
       id="clipPath112"
       clipPathUnits="userSpaceOnUse">
      <path
         id="path110"
         clip-rule="evenodd"
         d="m 689.49988,754.51721 h 236.79395 v 30.35821 H 689.49988 Z" />
    </clipPath>
    <clipPath
       id="clipPath124"
       clipPathUnits="userSpaceOnUse">
      <path
         id="path122"
         clip-rule="evenodd"
         d="m 689.49988,492.3797 h 236.79395 v 30.35822 H 689.49988 Z" />
    </clipPath>
    <clipPath
       id="clipPath136"
       clipPathUnits="userSpaceOnUse">
      <path
         id="path134"
         clip-rule="evenodd"
         d="m 689.49988,542.85864 h 236.79395 v 30.35821 H 689.49988 Z" />
    </clipPath>
    <clipPath
       id="clipPath148"
       clipPathUnits="userSpaceOnUse">
      <path
         id="path146"
         clip-rule="evenodd"
         d="m 689.49988,596.64667 h 236.79395 v 30.35821 H 689.49988 Z" />
    </clipPath>
    <clipPath
       id="clipPath160"
       clipPathUnits="userSpaceOnUse">
      <path
         id="path158"
         clip-rule="evenodd"
         d="m 689.49988,805.52118 h 236.79395 v 30.35821 H 689.49988 Z" />
    </clipPath>
  </defs>
  <sodipodi:namedview
     id="base"
     pagecolor="#ffffff"
     bordercolor="#666666"
     borderopacity="1.0"
     inkscape:pageopacity="0.0"
     inkscape:pageshadow="2"
     inkscape:zoom="0.88"
     inkscape:cx="253.97727"
     inkscape:cy="553.66883"
     inkscape:document-units="mm"
     inkscape:current-layer="layer1"
     showgrid="false"
     inkscape:window-width="2560"
     inkscape:window-height="1373"
     inkscape:window-x="-9"
     inkscape:window-y="-9"
     inkscape:window-maximized="1" />
  <metadata
     id="metadata5">
    <rdf:RDF>
      <cc:Work
         rdf:about="">
        <dc:format>image/svg+xml</dc:format>
        <dc:type
           rdf:resource="http://purl.org/dc/dcmitype/StillImage" />
        <dc:title />
      </cc:Work>
    </rdf:RDF>
  </metadata>
  <g
     inkscape:label="Layer 1"
     inkscape:groupmode="layer"
     id="layer1">
    <g
       style="fill:#000030"
       id="g52"
       transform="matrix(0.08527957,0,0,0.08566905,44.139633,66.328028)">
      <g
         style="fill:#000030"
         id="g54"
         clip-path="url(#clipPath58)">
        <g
           style="fill:#000030"
           id="g60"
           transform="matrix(1.4562499,0,0,1.4562499,369.56653,347.69525)">
          <path
             inkscape:connector-curvature="0"
             d="M 0,0 H 500 V 500 H 0 Z"
             style="fill:#000030;fill-opacity:1;fill-rule:nonzero;stroke:none"
             id="path62" />
        </g>
      </g>
    </g>
    <g
       style="fill:#ffffff"
       id="g639"
       transform="matrix(0.08466666,0,0,0.11906474,44.368292,50.998662)">
      <g
         style="fill:#ffffff"
         transform="matrix(2.2510158,0,0,0.99239339,-1082.5652,3.7453518)"
         id="g82">
        <g
           style="fill:#ffffff"
           clip-path="url(#clipPath88)"
           id="g84">
          <g
             style="fill:#ffffff"
             transform="matrix(0.46250448,0,0,0.48035127,691.40918,542.03247)"
             id="g90">
            <path
               inkscape:connector-curvature="0"
               id="path92"
               style="fill:#ffffff;fill-opacity:1;fill-rule:nonzero;stroke:none"
               d="m 499.89999,255.5 c -12.29998,0 -18.20001,-6.10001 -26.29998,-14.5 l -0.20002,-0.2 c -9.70001,-10 -21.70001,-22.39999 -45,-22.39999 -23.5,0 -35.5,12.5 -45.20001,22.60001 -8.1,8.39999 -14,14.5 -26.29999,14.5 -12.29998,0 -18.20001,-6.10001 -26.29998,-14.5 l -0.29999,-0.30001 c -9.60001,-9.89999 -21.5,-22.19999 -44.60001,-22.19999 -23.5,0 -35.5,12.5 -45.1,22.5 l -0.10001,0.1 c -8.10001,8.4 -14,14.5 -26.3,14.5 -12.30001,0 -18.2,-6.1 -26.30001,-14.5 l -0.3,-0.3 c -9.60001,-9.9 -21.60001,-22.3 -44.90001,-22.3 -23.5,0 -35.5,12.5 -45.099997,22.5 l -0.1,0.1 c -8.099999,8.4 -14,14.5 -26.300003,14.5 -12.3,0 -18.200001,-6.1 -26.3,-14.5 l -0.2,-0.2 c -9.700001,-10 -21.700001,-22.39999 -45.00000031,-22.39999 H -6.3000203 v 26 h 5.99999999 c 12.30000031,0 18.20000031,6.10001 26.29999931,14.5 l 0.299999,0.29999 c 9.599999,9.89999 21.599999,22.29999 44.900002,22.29999 23.5,0 35.5,-12.5 45.1,-22.5 l 0.1,-0.10001 c 8.1,-8.39999 14,-14.5 26.3,-14.5 12.3,0 18.2,6.10001 26.3,14.5 l 0.2,0.20001 c 9.7,10 21.7,22.4 45,22.4 23.5,0 35.5,-12.5 45.10001,-22.5 l 0.1,-0.10001 c 8.10001,-8.39999 14,-14.5 26.29999,-14.5 12.4,0 18.20001,6.10001 26.20001,14.5 C 321.5,269 333.5,281.5 357,281.5 c 23.5,0 35.5,-12.5 45.10001,-22.5 l 0.1,-0.10001 c 8.10001,-8.39999 14,-14.5 26.29999,-14.5 12.29999,0 18.20001,6.10001 26.29999,14.5 L 455,259.10001 c 9.70001,10 21.70001,22.39999 44.89999,22.39999 h 6 v -26 z" />
          </g>
        </g>
      </g>
      <g
         style="fill:#ffffff"
         transform="matrix(2.2510158,0,0,0.99239339,-1082.5652,3.7453518)"
         id="g94">
        <g
           style="fill:#ffffff"
           clip-path="url(#clipPath100)"
           id="g96">
          <g
             style="fill:#ffffff"
             transform="matrix(0.46250448,0,0,0.48035127,691.40918,595.82056)"
             id="g102">
            <path
               inkscape:connector-curvature="0"
               id="path104"
               style="fill:#ffffff;fill-opacity:1;fill-rule:nonzero;stroke:none"
               d="m 499.89999,255.5 c -12.29998,0 -18.20001,-6.10001 -26.29998,-14.5 l -0.20002,-0.2 c -9.70001,-10 -21.70001,-22.39999 -45,-22.39999 -23.5,0 -35.5,12.5 -45.20001,22.60001 -8.1,8.39999 -14,14.5 -26.29999,14.5 -12.29998,0 -18.20001,-6.10001 -26.29998,-14.5 l -0.29999,-0.30001 c -9.60001,-9.89999 -21.5,-22.19999 -44.60001,-22.19999 -23.5,0 -35.5,12.5 -45.1,22.5 l -0.10001,0.1 c -8.10001,8.4 -14,14.5 -26.3,14.5 -12.30001,0 -18.2,-6.1 -26.30001,-14.5 l -0.3,-0.3 c -9.60001,-9.9 -21.60001,-22.3 -44.90001,-22.3 -23.5,0 -35.5,12.5 -45.099997,22.5 l -0.1,0.1 c -8.099999,8.4 -14,14.5 -26.300003,14.5 -12.3,0 -18.200001,-6.1 -26.3,-14.5 l -0.2,-0.2 c -9.700001,-10 -21.700001,-22.39999 -45.00000031,-22.39999 H -6.3000203 v 26 h 5.99999999 c 12.30000031,0 18.20000031,6.10001 26.29999931,14.5 l 0.299999,0.29999 c 9.599999,9.89999 21.599999,22.29999 44.900002,22.29999 23.5,0 35.5,-12.5 45.1,-22.5 l 0.1,-0.10001 c 8.1,-8.39999 14,-14.5 26.3,-14.5 12.3,0 18.2,6.10001 26.3,14.5 l 0.2,0.20001 c 9.7,10 21.7,22.4 45,22.4 23.5,0 35.5,-12.5 45.10001,-22.5 l 0.1,-0.10001 c 8.10001,-8.39999 14,-14.5 26.29999,-14.5 12.4,0 18.20001,6.10001 26.20001,14.5 C 321.5,269 333.5,281.5 357,281.5 c 23.5,0 35.5,-12.5 45.10001,-22.5 l 0.1,-0.10001 c 8.10001,-8.39999 14,-14.5 26.29999,-14.5 12.29999,0 18.20001,6.10001 26.29999,14.5 L 455,259.10001 c 9.70001,10 21.70001,22.39999 44.89999,22.39999 h 6 v -26 z" />
          </g>
        </g>
      </g>
      <g
         style="fill:#ffffff"
         transform="matrix(2.2510158,0,0,0.99239339,-1082.5652,3.7453518)"
         id="g106">
        <g
           style="fill:#ffffff"
           clip-path="url(#clipPath112)"
           id="g108">
          <g
             style="fill:#ffffff"
             transform="matrix(0.46250448,0,0,0.48035127,691.40918,649.60852)"
             id="g114">
            <path
               inkscape:connector-curvature="0"
               id="path116"
               style="fill:#ffffff;fill-opacity:1;fill-rule:nonzero;stroke:none"
               d="m 499.89999,255.5 c -12.29998,0 -18.20001,-6.10001 -26.29998,-14.5 l -0.20002,-0.2 c -9.70001,-10 -21.70001,-22.39999 -45,-22.39999 -23.5,0 -35.5,12.5 -45.20001,22.60001 -8.1,8.39999 -14,14.5 -26.29999,14.5 -12.29998,0 -18.20001,-6.10001 -26.29998,-14.5 l -0.29999,-0.30001 c -9.60001,-9.89999 -21.5,-22.19999 -44.60001,-22.19999 -23.5,0 -35.5,12.5 -45.1,22.5 l -0.10001,0.1 c -8.10001,8.4 -14,14.5 -26.3,14.5 -12.30001,0 -18.2,-6.1 -26.30001,-14.5 l -0.3,-0.3 c -9.60001,-9.9 -21.60001,-22.3 -44.90001,-22.3 -23.5,0 -35.5,12.5 -45.099997,22.5 l -0.1,0.1 c -8.099999,8.4 -14,14.5 -26.300003,14.5 -12.3,0 -18.200001,-6.1 -26.3,-14.5 l -0.2,-0.2 c -9.700001,-10 -21.700001,-22.39999 -45.00000031,-22.39999 H -6.3000203 v 26 h 5.99999999 c 12.30000031,0 18.20000031,6.10001 26.29999931,14.5 l 0.299999,0.29999 c 9.599999,9.89999 21.599999,22.29999 44.900002,22.29999 23.5,0 35.5,-12.5 45.1,-22.5 l 0.1,-0.10001 c 8.1,-8.39999 14,-14.5 26.3,-14.5 12.3,0 18.2,6.10001 26.3,14.5 l 0.2,0.20001 c 9.7,10 21.7,22.4 45,22.4 23.5,0 35.5,-12.5 45.10001,-22.5 l 0.1,-0.10001 c 8.10001,-8.39999 14,-14.5 26.29999,-14.5 12.4,0 18.20001,6.10001 26.20001,14.5 C 321.5,269 333.5,281.5 357,281.5 c 23.5,0 35.5,-12.5 45.10001,-22.5 l 0.1,-0.10001 c 8.10001,-8.39999 14,-14.5 26.29999,-14.5 12.29999,0 18.20001,6.10001 26.29999,14.5 L 455,259.10001 c 9.70001,10 21.70001,22.39999 44.89999,22.39999 h 6 v -26 z" />
          </g>
        </g>
      </g>
      <g
         style="fill:#ffffff"
         transform="matrix(2.2510158,0,0,0.99239339,-1082.5652,3.7453518)"
         id="g118">
        <g
           style="fill:#ffffff"
           clip-path="url(#clipPath124)"
           id="g120">
          <g
             style="fill:#ffffff"
             transform="matrix(0.46250448,0,0,0.48035127,691.40918,387.47098)"
             id="g126">
            <path
               inkscape:connector-curvature="0"
               id="path128"
               style="fill:#ffffff;fill-opacity:1;fill-rule:nonzero;stroke:none"
               d="m 499.89999,255.5 c -12.29998,0 -18.20001,-6.10001 -26.29998,-14.5 l -0.20002,-0.2 c -9.70001,-10 -21.70001,-22.39999 -45,-22.39999 -23.5,0 -35.5,12.5 -45.20001,22.60001 -8.1,8.39999 -14,14.5 -26.29999,14.5 -12.29998,0 -18.20001,-6.10001 -26.29998,-14.5 l -0.29999,-0.30001 c -9.60001,-9.89999 -21.5,-22.19999 -44.60001,-22.19999 -23.5,0 -35.5,12.5 -45.1,22.5 l -0.10001,0.1 c -8.10001,8.4 -14,14.5 -26.3,14.5 -12.30001,0 -18.2,-6.1 -26.30001,-14.5 l -0.3,-0.3 c -9.60001,-9.9 -21.60001,-22.3 -44.90001,-22.3 -23.5,0 -35.5,12.5 -45.099997,22.5 l -0.1,0.1 c -8.099999,8.4 -14,14.5 -26.300003,14.5 -12.3,0 -18.200001,-6.1 -26.3,-14.5 l -0.2,-0.2 c -9.700001,-10 -21.700001,-22.39999 -45.00000031,-22.39999 H -6.3000203 v 26 h 5.99999999 c 12.30000031,0 18.20000031,6.10001 26.29999931,14.5 l 0.299999,0.29999 c 9.599999,9.89999 21.599999,22.29999 44.900002,22.29999 23.5,0 35.5,-12.5 45.1,-22.5 l 0.1,-0.10001 c 8.1,-8.39999 14,-14.5 26.3,-14.5 12.3,0 18.2,6.10001 26.3,14.5 l 0.2,0.20001 c 9.7,10 21.7,22.4 45,22.4 23.5,0 35.5,-12.5 45.10001,-22.5 l 0.1,-0.10001 c 8.10001,-8.39999 14,-14.5 26.29999,-14.5 12.4,0 18.20001,6.10001 26.20001,14.5 C 321.5,269 333.5,281.5 357,281.5 c 23.5,0 35.5,-12.5 45.10001,-22.5 l 0.1,-0.10001 c 8.10001,-8.39999 14,-14.5 26.29999,-14.5 12.29999,0 18.20001,6.10001 26.29999,14.5 L 455,259.10001 c 9.70001,10 21.70001,22.39999 44.89999,22.39999 h 6 v -26 z" />
          </g>
        </g>
      </g>
      <g
         style="fill:#ffffff"
         transform="matrix(2.2510158,0,0,0.99239339,-1082.5652,3.7453518)"
         id="g130">
        <g
           style="fill:#ffffff"
           clip-path="url(#clipPath136)"
           id="g132">
          <g
             style="fill:#ffffff"
             transform="matrix(0.46250448,0,0,0.48035127,691.40918,437.94992)"
             id="g138">
            <path
               inkscape:connector-curvature="0"
               id="path140"
               style="fill:#ffffff;fill-opacity:1;fill-rule:nonzero;stroke:none"
               d="m 499.89999,255.5 c -12.29998,0 -18.20001,-6.10001 -26.29998,-14.5 l -0.20002,-0.2 c -9.70001,-10 -21.70001,-22.39999 -45,-22.39999 -23.5,0 -35.5,12.5 -45.20001,22.60001 -8.1,8.39999 -14,14.5 -26.29999,14.5 -12.29998,0 -18.20001,-6.10001 -26.29998,-14.5 l -0.29999,-0.30001 c -9.60001,-9.89999 -21.5,-22.19999 -44.60001,-22.19999 -23.5,0 -35.5,12.5 -45.1,22.5 l -0.10001,0.1 c -8.10001,8.4 -14,14.5 -26.3,14.5 -12.30001,0 -18.2,-6.1 -26.30001,-14.5 l -0.3,-0.3 c -9.60001,-9.9 -21.60001,-22.3 -44.90001,-22.3 -23.5,0 -35.5,12.5 -45.099997,22.5 l -0.1,0.1 c -8.099999,8.4 -14,14.5 -26.300003,14.5 -12.3,0 -18.200001,-6.1 -26.3,-14.5 l -0.2,-0.2 c -9.700001,-10 -21.700001,-22.39999 -45.00000031,-22.39999 H -6.3000203 v 26 h 5.99999999 c 12.30000031,0 18.20000031,6.10001 26.29999931,14.5 l 0.299999,0.29999 c 9.599999,9.89999 21.599999,22.29999 44.900002,22.29999 23.5,0 35.5,-12.5 45.1,-22.5 l 0.1,-0.10001 c 8.1,-8.39999 14,-14.5 26.3,-14.5 12.3,0 18.2,6.10001 26.3,14.5 l 0.2,0.20001 c 9.7,10 21.7,22.4 45,22.4 23.5,0 35.5,-12.5 45.10001,-22.5 l 0.1,-0.10001 c 8.10001,-8.39999 14,-14.5 26.29999,-14.5 12.4,0 18.20001,6.10001 26.20001,14.5 C 321.5,269 333.5,281.5 357,281.5 c 23.5,0 35.5,-12.5 45.10001,-22.5 l 0.1,-0.10001 c 8.10001,-8.39999 14,-14.5 26.29999,-14.5 12.29999,0 18.20001,6.10001 26.29999,14.5 L 455,259.10001 c 9.70001,10 21.70001,22.39999 44.89999,22.39999 h 6 v -26 z" />
          </g>
        </g>
      </g>
      <g
         style="fill:#ffffff"
         transform="matrix(2.2510158,0,0,0.99239339,-1082.5652,3.7453518)"
         id="g142">
        <g
           style="fill:#ffffff"
           clip-path="url(#clipPath148)"
           id="g144">
          <g
             style="fill:#ffffff"
             transform="matrix(0.46250448,0,0,0.48035127,691.40918,491.73795)"
             id="g150">
            <path
               inkscape:connector-curvature="0"
               id="path152"
               style="fill:#ffffff;fill-opacity:1;fill-rule:nonzero;stroke:none"
               d="m 499.89999,255.5 c -12.29998,0 -18.20001,-6.10001 -26.29998,-14.5 l -0.20002,-0.2 c -9.70001,-10 -21.70001,-22.39999 -45,-22.39999 -23.5,0 -35.5,12.5 -45.20001,22.60001 -8.1,8.39999 -14,14.5 -26.29999,14.5 -12.29998,0 -18.20001,-6.10001 -26.29998,-14.5 l -0.29999,-0.30001 c -9.60001,-9.89999 -21.5,-22.19999 -44.60001,-22.19999 -23.5,0 -35.5,12.5 -45.1,22.5 l -0.10001,0.1 c -8.10001,8.4 -14,14.5 -26.3,14.5 -12.30001,0 -18.2,-6.1 -26.30001,-14.5 l -0.3,-0.3 c -9.60001,-9.9 -21.60001,-22.3 -44.90001,-22.3 -23.5,0 -35.5,12.5 -45.099997,22.5 l -0.1,0.1 c -8.099999,8.4 -14,14.5 -26.300003,14.5 -12.3,0 -18.200001,-6.1 -26.3,-14.5 l -0.2,-0.2 c -9.700001,-10 -21.700001,-22.39999 -45.00000031,-22.39999 H -6.3000203 v 26 h 5.99999999 c 12.30000031,0 18.20000031,6.10001 26.29999931,14.5 l 0.299999,0.29999 c 9.599999,9.89999 21.599999,22.29999 44.900002,22.29999 23.5,0 35.5,-12.5 45.1,-22.5 l 0.1,-0.10001 c 8.1,-8.39999 14,-14.5 26.3,-14.5 12.3,0 18.2,6.10001 26.3,14.5 l 0.2,0.20001 c 9.7,10 21.7,22.4 45,22.4 23.5,0 35.5,-12.5 45.10001,-22.5 l 0.1,-0.10001 c 8.10001,-8.39999 14,-14.5 26.29999,-14.5 12.4,0 18.20001,6.10001 26.20001,14.5 C 321.5,269 333.5,281.5 357,281.5 c 23.5,0 35.5,-12.5 45.10001,-22.5 l 0.1,-0.10001 c 8.10001,-8.39999 14,-14.5 26.29999,-14.5 12.29999,0 18.20001,6.10001 26.29999,14.5 L 455,259.10001 c 9.70001,10 21.70001,22.39999 44.89999,22.39999 h 6 v -26 z" />
          </g>
        </g>
      </g>
      <g
         style="fill:#ffffff"
         transform="matrix(2.2510158,0,0,0.99239339,-1082.5652,3.7453518)"
         id="g154">
        <g
           style="fill:#ffffff"
           clip-path="url(#clipPath160)"
           id="g156">
          <g
             style="fill:#ffffff"
             transform="matrix(0.46250448,0,0,0.48035127,691.40918,700.61249)"
             id="g162">
            <path
               inkscape:connector-curvature="0"
               id="path164"
               style="fill:#ffffff;fill-opacity:1;fill-rule:nonzero;stroke:none"
               d="m 499.89999,255.5 c -12.29998,0 -18.20001,-6.10001 -26.29998,-14.5 l -0.20002,-0.2 c -9.70001,-10 -21.70001,-22.39999 -45,-22.39999 -23.5,0 -35.5,12.5 -45.20001,22.60001 -8.1,8.39999 -14,14.5 -26.29999,14.5 -12.29998,0 -18.20001,-6.10001 -26.29998,-14.5 l -0.29999,-0.30001 c -9.60001,-9.89999 -21.5,-22.19999 -44.60001,-22.19999 -23.5,0 -35.5,12.5 -45.1,22.5 l -0.10001,0.1 c -8.10001,8.4 -14,14.5 -26.3,14.5 -12.30001,0 -18.2,-6.1 -26.30001,-14.5 l -0.3,-0.3 c -9.60001,-9.9 -21.60001,-22.3 -44.90001,-22.3 -23.5,0 -35.5,12.5 -45.099997,22.5 l -0.1,0.1 c -8.099999,8.4 -14,14.5 -26.300003,14.5 -12.3,0 -18.200001,-6.1 -26.3,-14.5 l -0.2,-0.2 c -9.700001,-10 -21.700001,-22.39999 -45.00000031,-22.39999 H -6.3000203 v 26 h 5.99999999 c 12.30000031,0 18.20000031,6.10001 26.29999931,14.5 l 0.299999,0.29999 c 9.599999,9.89999 21.599999,22.29999 44.900002,22.29999 23.5,0 35.5,-12.5 45.1,-22.5 l 0.1,-0.10001 c 8.1,-8.39999 14,-14.5 26.3,-14.5 12.3,0 18.2,6.10001 26.3,14.5 l 0.2,0.20001 c 9.7,10 21.7,22.4 45,22.4 23.5,0 35.5,-12.5 45.10001,-22.5 l 0.1,-0.10001 c 8.10001,-8.39999 14,-14.5 26.29999,-14.5 12.4,0 18.20001,6.10001 26.20001,14.5 C 321.5,269 333.5,281.5 357,281.5 c 23.5,0 35.5,-12.5 45.10001,-22.5 l 0.1,-0.10001 c 8.10001,-8.39999 14,-14.5 26.29999,-14.5 12.29999,0 18.20001,6.10001 26.29999,14.5 L 455,259.10001 c 9.70001,10 21.70001,22.39999 44.89999,22.39999 h 6 v -26 z" />
          </g>
        </g>
      </g>
    </g>
  </g>
</svg>
